<?xml version="1.0" encoding="UTF-8" standalone="no"?>
<!-- Created with Inkscape (http://www.inkscape.org/) -->

<svg
   width="32"
   height="32"
   viewBox="0 0 32 32"
   version="1.1"
   id="svg5"
   inkscape:export-filename="C:\msys64\home\User\paniview\растровый.png"
   inkscape:export-xdpi="768"
   inkscape:export-ydpi="768"
   inkscape:version="1.1.1 (3bf5ae0d25, 2021-09-20)"
   sodipodi:docname="рисунок.svg"
   xmlns:inkscape="http://www.inkscape.org/namespaces/inkscape"
   xmlns:sodipodi="http://sodipodi.sourceforge.net/DTD/sodipodi-0.dtd"
   xmlns:xlink="http://www.w3.org/1999/xlink"
   xmlns="http://www.w3.org/2000/svg"
   xmlns:svg="http://www.w3.org/2000/svg">
  <sodipodi:namedview
     id="namedview7"
     pagecolor="#505050"
     bordercolor="#ffffff"
     borderopacity="1"
     inkscape:pageshadow="0"
     inkscape:pageopacity="0"
     inkscape:pagecheckerboard="1"
     inkscape:document-units="px"
     showgrid="false"
     units="px"
     scale-x="1"
     inkscape:snap-bbox="true"
     inkscape:bbox-paths="true"
     inkscape:bbox-nodes="true"
     inkscape:snap-bbox-edge-midpoints="true"
     inkscape:snap-bbox-midpoints="true"
     inkscape:snap-page="true"
     inkscape:snap-text-baseline="true"
     inkscape:snap-center="true"
     inkscape:snap-object-midpoints="true"
     inkscape:snap-midpoints="true"
     inkscape:snap-smooth-nodes="true"
     inkscape:snap-intersection-paths="true"
     inkscape:object-paths="true"
     showguides="false"
     inkscape:guide-bbox="true"
     inkscape:snap-global="true"
     inkscape:zoom="8"
     inkscape:cx="13.1875"
     inkscape:cy="9.1875"
     inkscape:window-width="1304"
     inkscape:window-height="745"
     inkscape:window-x="54"
     inkscape:window-y="-8"
     inkscape:window-maximized="1"
     inkscape:current-layer="layer1" />
  <defs
     id="defs2">
    <linearGradient
       inkscape:collect="always"
       id="linearGradient20083">
      <stop
         style="stop-color:#008e00;stop-opacity:1"
         offset="0"
         id="stop20079" />
      <stop
         style="stop-color:#00af0b;stop-opacity:1;"
         offset="0.44209865"
         id="stop20085" />
      <stop
         style="stop-color:#00da1a;stop-opacity:1"
         offset="1"
         id="stop20081" />
    </linearGradient>
    <linearGradient
       inkscape:collect="always"
       id="linearGradient19624">
      <stop
         style="stop-color:#008e00;stop-opacity:1"
         offset="0"
         id="stop19620" />
      <stop
         style="stop-color:#00da1a;stop-opacity:1"
         offset="1"
         id="stop19622" />
    </linearGradient>
    <linearGradient
       inkscape:collect="always"
       id="linearGradient19316">
      <stop
         style="stop-color:#ff6100;stop-opacity:1"
         offset="0"
         id="stop19312" />
      <stop
         style="stop-color:#ffcb00;stop-opacity:1"
         offset="1"
         id="stop19314" />
    </linearGradient>
    <linearGradient
       inkscape:collect="always"
       id="linearGradient16027">
      <stop
         style="stop-color:#fffed3;stop-opacity:1"
         offset="0"
         id="stop16023" />
      <stop
         style="stop-color:#8ae6ff;stop-opacity:1"
         offset="1"
         id="stop16025" />
    </linearGradient>
    <linearGradient
       inkscape:collect="always"
       id="linearGradient11471">
      <stop
         style="stop-color:#143eae;stop-opacity:1"
         offset="0"
         id="stop11467" />
      <stop
         style="stop-color:#474dca;stop-opacity:0"
         offset="1"
         id="stop11469" />
    </linearGradient>
    <linearGradient
       inkscape:collect="always"
       id="linearGradient9885">
      <stop
         style="stop-color:#0045ff;stop-opacity:1;"
         offset="0"
         id="stop9881" />
      <stop
         style="stop-color:#5281ff;stop-opacity:1"
         offset="1"
         id="stop9883" />
    </linearGradient>
    <linearGradient
       inkscape:collect="always"
       xlink:href="#linearGradient9885"
       id="linearGradient9887"
       x1="16"
       y1="32"
       x2="16"
       y2="0"
       gradientUnits="userSpaceOnUse" />
    <radialGradient
       inkscape:collect="always"
       xlink:href="#linearGradient11471"
       id="radialGradient11307"
       cx="15.999998"
       cy="32"
       fx="15.999998"
       fy="32"
       r="16"
       gradientUnits="userSpaceOnUse"
       gradientTransform="matrix(1.9628814,0,0,1.6875,-15.406098,-22)" />
    <linearGradient
       inkscape:collect="always"
       xlink:href="#linearGradient19624"
       id="linearGradient14110"
       x1="16"
       y1="32"
       x2="15.999999"
       y2="16"
       gradientUnits="userSpaceOnUse" />
    <linearGradient
       inkscape:collect="always"
       xlink:href="#linearGradient20083"
       id="linearGradient14234"
       x1="16"
       y1="27.5"
       x2="16"
       y2="14.279297"
       gradientUnits="userSpaceOnUse" />
    <linearGradient
       inkscape:collect="always"
       xlink:href="#linearGradient16027"
       id="linearGradient16029"
       x1="16"
       y1="28"
       x2="16"
       y2="4"
       gradientUnits="userSpaceOnUse" />
    <linearGradient
       inkscape:collect="always"
       xlink:href="#linearGradient19316"
       id="linearGradient19310"
       x1="22.999998"
       y1="14"
       x2="23"
       y2="6"
       gradientUnits="userSpaceOnUse" />
  </defs>
  <g
     inkscape:label="Слой 1"
     inkscape:groupmode="layer"
     id="layer1">
    <rect
       style="fill:url(#linearGradient9887);fill-opacity:1;stroke:none;stroke-linecap:round;stroke-linejoin:round;paint-order:markers fill stroke"
       id="rect9811"
       width="32"
       height="32"
       x="0"
       y="0"
       rx="4"
       inkscape:export-filename="C:\msys64\home\User\paniview\rect9811.png"
       inkscape:export-xdpi="768"
       inkscape:export-ydpi="768" />
    <rect
       style="fill:url(#radialGradient11307);fill-opacity:1;stroke:none;stroke-linecap:round;stroke-linejoin:round;paint-order:markers fill stroke"
       id="rect9811-9"
       width="32"
       height="32"
       x="-9.5367432e-07"
       y="-4.7683716e-07"
       rx="4"
       ry="4"
       inkscape:export-filename="C:\msys64\home\User\paniview\rect9811.png"
       inkscape:export-xdpi="768"
       inkscape:export-ydpi="768" />
    <path
       id="rect9811-5"
       style="fill:#000000;fill-opacity:0.25;stroke:none;stroke-linecap:round;stroke-linejoin:round;paint-order:markers fill stroke"
       d="m 0,27 v 1 c 0,2.216 1.784,4 4,4 h 24 c 2.216,0 4,-1.784 4,-4 v -1 c 0,2.216 -1.784,4 -4,4 H 4 C 1.784,31 0,29.216 0,27 Z"
       inkscape:export-filename="C:\msys64\home\User\paniview\rect9811.png"
       inkscape:export-xdpi="768"
       inkscape:export-ydpi="768" />
    <path
       id="rect9811-5-1"
       style="fill:#ffffff;fill-opacity:0.25;stroke:none;stroke-linecap:round;stroke-linejoin:round;paint-order:markers fill stroke"
       d="m 0,4.9999997 v -1 C 0,1.7839997 1.784,0 4,0 h 24 c 2.216,0 4,1.7839997 4,3.9999997 v 1 c 0,-2.216 -1.784,-4 -4,-4 H 4 c -2.216,0 -4,1.784 -4,4 z"
       inkscape:export-filename="C:\msys64\home\User\paniview\rect9811.png"
       inkscape:export-xdpi="768"
       inkscape:export-ydpi="768" />
    <rect
       style="fill:url(#linearGradient16029);fill-opacity:1;stroke:none;stroke-width:1;stroke-linecap:round;stroke-linejoin:round;paint-order:markers fill stroke"
       id="rect10447"
       width="26"
       height="24"
       x="3"
       y="4"
       rx="2"
       ry="2"
       inkscape:export-filename="C:\msys64\home\User\paniview\rect9811.png"
       inkscape:export-xdpi="768"
       inkscape:export-ydpi="768" />
    <path
       id="rect10447-6"
       style="fill:#ffffff;fill-opacity:0.25;stroke:none;stroke-width:1;stroke-linecap:round;stroke-linejoin:round;paint-order:markers fill stroke"
       d="m 3,26 v 1 c 0,1.108 0.892,2 2,2 h 22 c 1.108,0 2,-0.892 2,-2 v -1 c 0,1.108 -0.892,2 -2,2 H 5 C 3.892,28 3,27.108 3,26 Z"
       inkscape:export-filename="C:\msys64\home\User\paniview\rect9811.png"
       inkscape:export-xdpi="768"
       inkscape:export-ydpi="768" />
    <path
       id="rect10447-6-6"
       style="fill:#000000;fill-opacity:0.25;stroke:none;stroke-width:1;stroke-linecap:round;stroke-linejoin:round;paint-order:markers fill stroke"
       d="M 2.9999999,6 V 5 c 0,-1.108 0.892,-2 2.0000001,-2 h 22 c 1.108,0 2,0.892 2,2 V 6 C 29,4.892 28.108,4 27,4 H 5 C 3.8919999,4 2.9999999,4.892 2.9999999,6 Z"
       inkscape:export-filename="C:\msys64\home\User\paniview\rect9811.png"
       inkscape:export-xdpi="768"
       inkscape:export-ydpi="768" />
    <g
       id="g20459"
       inkscape:export-filename="C:\msys64\home\User\paniview\rect9811.png"
       inkscape:export-xdpi="768"
       inkscape:export-ydpi="768">
      <path
         id="rect10447-1"
         style="fill:url(#linearGradient14110);fill-opacity:1.0;stroke:none;stroke-width:1;stroke-linecap:round;stroke-linejoin:round;paint-order:markers fill stroke"
         d="M 29,16.000001 A 32,32 0 0 0 4.21679,27.84375 C 4.45667,27.94513 4.72237,28 5,28 h 22 c 1.108,0 2,-0.892 2,-2 z" />
      <path
         id="rect10447-1-6"
         style="fill:#ffffff;fill-opacity:0.25;stroke:none;stroke-width:1;stroke-linecap:round;stroke-linejoin:round;paint-order:markers fill stroke"
         d="M 29,16 A 32,32 0 0 0 4.2167965,27.84375 c 0.110161,0.04656 0.225997,0.08129 0.345703,0.107421 A 32,32 0 0 1 29,16.5 Z" />
    </g>
    <path
       id="rect10447-0-3"
       style="fill:#000000;fill-opacity:0.05;stroke:none;stroke-width:1;stroke-linecap:round;stroke-linejoin:round;paint-order:markers fill stroke"
       d="M 3,25.498047 V 26 c 0,1.108 0.892,2 2,2 h 22 c 1.108,0 2,-0.892 2,-2 v -0.501953 c 0,1.108 -0.892,2 -2,2 H 5 c -1.108,0 -2,-0.892 -2,-2 z"
       inkscape:export-filename="C:\msys64\home\User\paniview\rect9811.png"
       inkscape:export-xdpi="768"
       inkscape:export-ydpi="768" />
    <g
       id="g20455"
       inkscape:export-filename="C:\msys64\home\User\paniview\rect9811.png"
       inkscape:export-xdpi="768"
       inkscape:export-ydpi="768">
      <path
         id="rect10447-0"
         style="fill:url(#linearGradient14234);fill-opacity:1.0;stroke:none;stroke-width:1;stroke-linecap:round;stroke-linejoin:round;paint-order:markers fill stroke"
         d="M 9.1875,14.279297 A 32,32 0 0 0 3,14.958984 V 26 c 0,1.108 0.892,2 2,2 h 22 c 1.108,0 2,-0.892 2,-2 V 21.162109 A 32,32 0 0 0 9.1875,14.279297 Z" />
      <path
         id="rect10447-0-0"
         style="fill:#ffffff;fill-opacity:0.25;stroke:none;stroke-width:1;stroke-linecap:round;stroke-linejoin:round;paint-order:markers fill stroke"
         d="M 9.1875,14.279297 A 32,32 0 0 0 3,14.958984 v 0.5 A 32,32 0 0 1 9.1875,14.779297 32,32 0 0 1 29,21.662109 v -0.5 A 32,32 0 0 0 9.1875,14.279297 Z" />
    </g>
    <circle
       style="fill:url(#linearGradient19310);fill-opacity:1;stroke:none;stroke-width:0.999995;stroke-linecap:round;stroke-linejoin:round;paint-order:markers fill stroke"
       id="path17196"
       cx="23"
       cy="10"
       r="4"
       inkscape:export-filename="C:\msys64\home\User\paniview\rect9811.png"
       inkscape:export-xdpi="768"
       inkscape:export-ydpi="768" />
    <path
       id="path17196-6"
       style="fill:#ffffff;fill-opacity:0.5;stroke:none;stroke-width:0.999995;stroke-linecap:round;stroke-linejoin:round;paint-order:markers fill stroke"
       d="m 23,6 a 4,4 0 0 0 -4,4 4,4 0 0 0 0.01758,0.25 A 4,4 0 0 1 23,6.5 4,4 0 0 1 26.986328,10.185546 4,4 0 0 0 27,10 4,4 0 0 0 23,6 Z"
       inkscape:export-filename="C:\msys64\home\User\paniview\rect9811.png"
       inkscape:export-xdpi="768"
       inkscape:export-ydpi="768" />
    <path
       id="path17196-6-5"
       style="fill:#000000;fill-opacity:0.05;stroke:none;stroke-width:0.999995;stroke-linecap:round;stroke-linejoin:round;paint-order:markers fill stroke"
       d="M 23,14 A 4,4 0 0 1 19,10 4,4 0 0 1 19.01758,9.75 4,4 0 0 0 23,13.5 4,4 0 0 0 26.986328,9.814454 4,4 0 0 1 26.999998,10 a 4,4 0 0 1 -4,4 z"
       inkscape:export-filename="C:\msys64\home\User\paniview\rect9811.png"
       inkscape:export-xdpi="768"
       inkscape:export-ydpi="768" />
  </g>
</svg>
