<svg xmlns="http://www.w3.org/2000/svg" width="64" height="64"><path d="M63 1h-3.1c0 1.71-1.39 3.1-3.1 3.1S53.7 2.71 53.7 1h-6.2c0 1.71-1.39 3.1-3.1 3.1S41.3 2.71 41.3 1h-6.2c0 1.71-1.39 3.1-3.1 3.1S28.9 2.71 28.9 1h-6.2c0 1.71-1.39 3.1-3.1 3.1S16.5 2.71 16.5 1h-6.2c0 1.71-1.39 3.1-3.1 3.1S4.1 2.71 4.1 1H1v3.1c1.71 0 3.1 1.39 3.1 3.1S2.71 10.3 1 10.3v6.2c1.71 0 3.1 1.39 3.1 3.1S2.71 22.7 1 22.7v6.2c1.71 0 3.1 1.39 3.1 3.1S2.71 35.1 1 35.1v6.2c1.71 0 3.1 1.39 3.1 3.1S2.71 47.5 1 47.5v6.2c1.71 0 3.1 1.39 3.1 3.1S2.71 59.9 1 59.9V63h3.1c0-1.71 1.39-3.1 3.1-3.1s3.1 1.39 3.1 3.1h6.2c0-1.71 1.39-3.1 3.1-3.1s3.1 1.39 3.1 3.1h6.2c0-1.71 1.39-3.1 3.1-3.1s3.1 1.39 3.1 3.1h6.2c0-1.71 1.39-3.1 3.1-3.1s3.1 1.39 3.1 3.1h6.2c0-1.71 1.39-3.1 3.1-3.1s3.1 1.39 3.1 3.1H63v-3.1c-1.71 0-3.1-1.39-3.1-3.1s1.39-3.1 3.1-3.1v-6.2c-1.71 0-3.1-1.39-3.1-3.1s1.39-3.1 3.1-3.1v-6.2c-1.71 0-3.1-1.39-3.1-3.1s1.39-3.1 3.1-3.1v-6.2c-1.71 0-3.1-1.39-3.1-3.1s1.39-3.1 3.1-3.1v-6.2c-1.71 0-3.1-1.39-3.1-3.1s1.39-3.1 3.1-3.1V1z" style="fill:#c7b299;stroke:#c69c6d;stroke-linecap:round;stroke-miterlimit:10;stroke-width:2px"/><path style="fill:#b3dbf4" d="M8 8h48v48H8z"/><path d="M53 19c0 3.31-2.69 6-6 6s-6-2.69-6-6 2.69-6 6-6 6 2.69 6 6z" style="fill:#fcee21"/><path style="fill:#b3b3b3" d="M45 40 20 23 8 33v10"/><path style="fill:#999" d="m22 40 18-12 15.8 10.8.2 5.2"/><path style="fill:#7ac943" d="M56 40 8 33v23h48V40z"/><path style="fill:#3fa9f5" d="M8 41h48v14L8 56V41z"/><path style="fill:#39b54a" d="m8 46 48-8v18H8V46z"/><path style="fill:none;stroke:#bdccd4;stroke-miterlimit:10;stroke-width:2px" d="M8 8h48v48H8z"/><g><path d="M59.32 36.68c-6.19-3.65-14.29-2.84-19.61 2.48s-6.13 13.42-2.48 19.61c6.19 3.65 14.29 2.84 19.61-2.48s6.13-13.42 2.48-19.61z" style="fill:#333;stroke:#1a1a1a;stroke-miterlimit:10"/><path d="M59.33 57.38c4.32-6.16 4.66-15.23-.01-20.7L41.4 62.27c6.73 2.52 13.62 1.27 17.93-4.9zM38.62 36.67c-6.16 4.32-7.42 11.2-4.9 17.93l25.59-17.92c-5.46-4.67-14.53-4.33-20.7-.01z" style="fill:red;stroke:#c1272d;stroke-linecap:round;stroke-linejoin:round"/><path d="M62.55 41.07c-1.58 1.58-3.61.2-5.71-1.9s-3.48-4.13-1.9-5.71 4.56-1.15 6.66.95 2.53 5.09.95 6.66z" style="fill:#333;stroke:#1a1a1a;stroke-miterlimit:10"/><circle cx="48.27" cy="38.21" r="1.35" style="fill:#1a1a1a"/><circle cx="37.8" cy="46.78" r="1.35" style="fill:#1a1a1a"/><circle cx="41.61" cy="41.07" r="1.35" style="fill:#1a1a1a"/><circle cx="57.79" cy="47.73" r="1.35" style="fill:#1a1a1a"/><circle cx="54.93" cy="54.39" r="1.35" style="fill:#1a1a1a"/><circle cx="49.22" cy="58.2" r="1.35" style="fill:#1a1a1a"/></g></svg>