<svg xmlns="http://www.w3.org/2000/svg" width="64" height="64"><path d="M63 1h-3.1c0 1.71-1.39 3.1-3.1 3.1S53.7 2.71 53.7 1h-6.2c0 1.71-1.39 3.1-3.1 3.1S41.3 2.71 41.3 1h-6.2c0 1.71-1.39 3.1-3.1 3.1S28.9 2.71 28.9 1h-6.2c0 1.71-1.39 3.1-3.1 3.1S16.5 2.71 16.5 1h-6.2c0 1.71-1.39 3.1-3.1 3.1S4.1 2.71 4.1 1H1v3.1c1.71 0 3.1 1.39 3.1 3.1S2.71 10.3 1 10.3v6.2c1.71 0 3.1 1.39 3.1 3.1S2.71 22.7 1 22.7v6.2c1.71 0 3.1 1.39 3.1 3.1S2.71 35.1 1 35.1v6.2c1.71 0 3.1 1.39 3.1 3.1S2.71 47.5 1 47.5v6.2c1.71 0 3.1 1.39 3.1 3.1S2.71 59.9 1 59.9V63h3.1c0-1.71 1.39-3.1 3.1-3.1s3.1 1.39 3.1 3.1h6.2c0-1.71 1.39-3.1 3.1-3.1s3.1 1.39 3.1 3.1h6.2c0-1.71 1.39-3.1 3.1-3.1s3.1 1.39 3.1 3.1h6.2c0-1.71 1.39-3.1 3.1-3.1s3.1 1.39 3.1 3.1h6.2c0-1.71 1.39-3.1 3.1-3.1s3.1 1.39 3.1 3.1H63v-3.1c-1.71 0-3.1-1.39-3.1-3.1s1.39-3.1 3.1-3.1v-6.2c-1.71 0-3.1-1.39-3.1-3.1s1.39-3.1 3.1-3.1v-6.2c-1.71 0-3.1-1.39-3.1-3.1s1.39-3.1 3.1-3.1v-6.2c-1.71 0-3.1-1.39-3.1-3.1s1.39-3.1 3.1-3.1v-6.2c-1.71 0-3.1-1.39-3.1-3.1s1.39-3.1 3.1-3.1V1z" style="fill:#c7b299;stroke:#c69c6d;stroke-linecap:round;stroke-miterlimit:10;stroke-width:2px"/><path style="fill:#b3dbf4" d="M8 8h48v48H8z"/><path d="M53 19c0 3.31-2.69 6-6 6s-6-2.69-6-6 2.69-6 6-6 6 2.69 6 6z" style="fill:#fcee21"/><path style="fill:#b3b3b3" d="M45 40 20 23 8 33v10"/><path style="fill:#999" d="m22 40 18-12 15.8 10.8.2 5.2"/><path style="fill:#7ac943" d="M56 40 8 33v23h48V40z"/><path style="fill:#3fa9f5" d="M8 41h48v14L8 56V41z"/><path style="fill:#39b54a" d="m8 46 48-8v18H8V46z"/><path style="fill:none;stroke:#bdccd4;stroke-miterlimit:10;stroke-width:2px" d="M8 8h48v48H8z"/></svg>