<svg xmlns="http://www.w3.org/2000/svg" width="128" height="16">
	<defs>
		<radialGradient id="a" cx="33.56" cy="7.41" fx="33.56" fy="7.41" r="2.25" gradientTransform="rotate(45 26.924 -159.928) scale(3.77 -3.75)" gradientUnits="userSpaceOnUse">
			<stop offset="0" stop-color="#fff"/>
			<stop offset="1"/>
		</radialGradient>
		<radialGradient id="b" cx="33.56" cy="7.41" fx="33.56" fy="7.41" r="2.25" gradientTransform="rotate(45 34.924 -140.614) scale(3.77 -3.75)" gradientUnits="userSpaceOnUse">
			<stop offset="0" stop-color="#fff"/>
			<stop offset="1"/>
		</radialGradient>
	</defs>
	<circle cx="8" cy="8" r="8" style="fill:green"/>
	<circle cx="8" cy="8" r="7" style="fill:url(#a);isolation:isolate;opacity:.5"/>
	<circle cx="8" cy="8" r="7.5" style="fill:none;isolation:isolate;opacity:.75;stroke:#000;stroke-linecap:round;stroke-linejoin:round;stroke-width:1px"/>
	<path d="m3.38 8 6.93 4V4L3.38 8z" style="fill:#fff"/>
	<circle cx="24" cy="8" r="8" style="fill:green"/>
	<circle cx="24" cy="8" r="7" style="fill:url(#b);isolation:isolate;opacity:.5"/>
	<circle cx="24" cy="8" r="7.5" style="fill:none;isolation:isolate;opacity:.75;stroke:#000;stroke-linecap:round;stroke-linejoin:round;stroke-width:1px"/>
	<path d="m28.62 8-6.93 4V4l6.93 4z" style="fill:#fff"/>
	<rect x="30.78" y="8.5" width="14.93" height="2.51" rx="1" ry="1" transform="rotate(-45 38.247 9.747)" style="fill:#803300;stroke:#2b1100;stroke-linecap:round;stroke-linejoin:round;stroke-width:1px"/>
	<circle cx="42.5" cy="5.5" r="5" style="fill:#dbdbe3;stroke:#1c1c24;stroke-linecap:round;stroke-linejoin:round;stroke-width:1px"/>
	<path d="M40.5 5.5h4" style="stroke:#000;stroke-miterlimit:15.12;stroke-width:1px"/>
	<rect x="46.78" y="8.5" width="14.93" height="2.51" rx="1" ry="1" transform="rotate(-45 54.252 9.758)" style="fill:#803300;stroke:#2b1100;stroke-linecap:round;stroke-linejoin:round;stroke-width:1px"/>
	<circle cx="58.5" cy="5.5" r="5" style="fill:#dbdbe3;stroke:#1c1c24;stroke-linecap:round;stroke-linejoin:round;stroke-width:1px"/>
	<path d="M56.5 5.5h4M58.5 3.5v4" style="stroke:#000;stroke-miterlimit:15.12;stroke-width:1px"/>
	<path d="M64.5 11.21v4.29h4.29l-4.29-4.29zM75.21 15.5l4.29-4.29v4.29h-4.29zM64.5 4.79V.5h4.29L64.5 4.79zM75.21.5l4.29 4.29V.5h-4.29zM85.5 14.79V10.5h-4.29l4.29 4.29zM94.79 10.5l-4.29 4.29V10.5h4.29zM85.5 1.21V5.5h-4.29l4.29-4.29zM94.79 5.5 90.5 1.21V5.5h4.29z" style="fill:#06f;stroke:#003380;stroke-miterlimit:15.12;stroke-width:1px"/>
	<g>
		<path d="M109.34 13.3c-1.46 1.46-3.38 2.2-5.3 2.2s-3.84-.73-5.3-2.2c-1.46-1.46-2.2-3.38-2.2-5.3s.73-3.84 2.2-5.3c1.46-1.46 3.38-2.2 5.3-2.2s3.84.73 5.3 2.2c.57.55 1.35 1.44 1.66 1.8" style="fill:none;stroke:#333;stroke-linecap:round;stroke-linejoin:round;stroke-width:1px"/>
		<path style="fill:none;stroke:#333;stroke-linecap:round;stroke-linejoin:round;stroke-width:1px" d="M107 4.5h4v-4"/>
	</g>
	<circle cx="104" cy="8" r="2.5" style="fill:none;stroke:#003380;stroke-miterlimit:15.12;stroke-width:1px"/>
	<path d="M120.78.53c.22 0 .93.06 1.15.82l.17.6.55-.29c.5-.33 1.24-.15 1.51.26.52.57.41 1.49.23 2.21.17-.02.75-.11.91-.13 2 .09.98 3.61 1.21 5.01-.17 1.61-1.35 3.31-1 5.01-.22 2.31-8.51 1.51-8.48 0-.15-.45-1.06-1.09-1.52-1.53-.48-.48-1.39-1.94-2-3.01-1.3-1.06.59-2.73 1.61-1.65.47.54 1.42 1.63 1.89 2.16V3.23c-.04-.86 1.02-1.53 1.78-1.12l.72.38v-.82c.01-.76.65-1.15 1.28-1.15" style="fill:#fffacf"/>
	<path d="M125.25 3.5c-.09 0-.17.02-.25.04.3-1.56-.99-3.16-2.59-2.31-.51-1.82-3.39-1.46-3.4.46-1.11-.58-2.54.31-2.51 1.57v5.42l-1.01-1.16c-1.47-1.53-4.07.65-2.39 2.29.24.41 1.4 2.39 2.05 3.05.35.36 1.2.95 1.39 1.34.43 2.24 9.72 2.59 9.46-.21-.32-1.72.9-3.4 1-4.98-.19-1.51.83-5.54-1.75-5.5zm.24 7.32c-.46.99-.6 2.34-.49 3.18-.1 1.49-7.54 1.09-7.54-.19-.23-.59-1.1-1.17-1.61-1.66-.5-.51-1.56-2.26-1.92-2.9-.83-.65-.04-1.7.82-1.06l1.87 2.13c.3.33.87.12.88-.33V3.24c-.01-.97 1.51-.97 1.5 0v4.25c0 .65 1.01.65 1 0V3.24c.07-.62-.33-2.28.75-2.25.92-.01.75 1.15.75 1.75v4.25c-.01.65 1.01.65 1 0V2.74c-.02-.97 1.51-.98 1.5 0v5.25c-.01.65 1.01.65 1 0V4.54c.45-.14 1 .2 1 .7-.05 1.44.24 4.2-.51 5.57z" style="fill:#41441f"/>
</svg>
